<svg xmlns="http://www.w3.org/2000/svg"  fill="none">
<mask id="mask0" x="0" y="0">
<path d="M0 0H1441V910H0V0Z" fill="#3D3D3D"/>
</mask>
<g opacity="0.4">
<path opacity="0.35" d="M565.958 183.768L460.771 367.426L355.584 183.768L565.958 183.768Z" fill="white" fill-opacity="0.25"/>
<path opacity="0.96" d="M565.958 918.966L671.145 735.025L776.332 918.966L565.958 918.966Z" fill="white" fill-opacity="0.25"/>
<path opacity="0.51" d="M1302.27 735.026L1407.46 551.368L1512.64 735.026L1302.27 735.026Z" fill="white" fill-opacity="0.25"/>
<path opacity="0.84" d="M565.958 183.77L671.145 -0.170782L776.333 183.77L565.958 183.77Z" fill="white" fill-opacity="0.25"/>
<path opacity="0.92" d="M881.52 -0.170792L776.333 183.77L671.146 -0.170772L881.52 -0.170792Z" fill="white" fill-opacity="0.25"/>
<path opacity="0.32" d="M565.958 551.367L671.145 367.427L776.333 551.367L565.958 551.367Z" fill="white" fill-opacity="0.25"/>
<path opacity="0.22" d="M1407.46 918.966L1512.64 735.025L1617.83 918.966L1407.46 918.966Z" fill="white" fill-opacity="0.25"/>
<path opacity="0.28" d="M355.584 551.368L460.771 367.427L565.958 551.367L355.584 551.368Z" fill="white" fill-opacity="0.25"/>
<path opacity="0.98" d="M1302.27 367.427L1197.08 551.367L1091.89 367.427L1302.27 367.427Z" fill="white" fill-opacity="0.25"/>
<path opacity="0.32" d="M986.707 551.368L881.52 735.026L776.333 551.368L986.707 551.368Z" fill="white" fill-opacity="0.25"/>
<path opacity="0.56" d="M881.52 367.427L776.333 551.367L671.146 367.427L881.52 367.427Z" fill="white" fill-opacity="0.25"/>
<path opacity="0.03" d="M776.333 183.77L881.52 -0.170782L986.707 183.77L776.333 183.77Z" fill="white" fill-opacity="0.25"/>
<path opacity="0.19" d="M460.77 735.026L565.957 551.368L671.145 735.026L460.77 735.026Z" fill="white" fill-opacity="0.25"/>
<path opacity="0.41" d="M1512.64 735.025L1407.46 918.966L1302.27 735.025L1512.64 735.025Z" fill="white" fill-opacity="0.25"/>
<path opacity="0.76" d="M986.707 183.768L881.52 367.426L776.333 183.768L986.707 183.768Z" fill="white" fill-opacity="0.25"/>
<path opacity="0.03" d="M1617.83 551.368L1512.64 735.026L1407.46 551.368L1617.83 551.368Z" fill="white" fill-opacity="0.25"/>
<path opacity="0.17" d="M355.584 183.77L460.771 -0.170752L565.958 183.77L355.584 183.77Z" fill="white" fill-opacity="0.25"/>
<path opacity="0.71" d="M1091.89 -0.170822L986.707 183.77L881.52 -0.170803L1091.89 -0.170822Z" fill="white" fill-opacity="0.25"/>
<path opacity="0.09" d="M1091.89 735.025L986.707 918.966L881.52 735.025L1091.89 735.025Z" fill="white" fill-opacity="0.25"/>
<path opacity="0.26" d="M1197.08 551.367L1302.27 367.427L1407.46 551.367L1197.08 551.367Z" fill="white" fill-opacity="0.25"/>
<path opacity="0.87" d="M1197.08 551.368L1091.9 735.026L986.708 551.368L1197.08 551.368Z" fill="white" fill-opacity="0.25"/>
<path opacity="0.18" d="M671.146 367.426L776.333 183.768L881.52 367.426L671.146 367.426Z" fill="white" fill-opacity="0.25"/>
<path opacity="0.17" d="M565.958 551.368L460.771 735.026L355.584 551.368L565.958 551.368Z" fill="white" fill-opacity="0.25"/>
<path opacity="0.43" d="M986.708 183.77L1091.9 -0.170813L1197.08 183.77L986.708 183.77Z" fill="white" fill-opacity="0.25"/>
<path opacity="0.01" d="M1197.08 918.966L1302.27 735.025L1407.46 918.966L1197.08 918.966Z" fill="white" fill-opacity="0.25"/>
<path opacity="0.84" d="M355.583 918.966L460.771 735.025L565.958 918.966L355.583 918.966Z" fill="white" fill-opacity="0.25"/>
<path opacity="0.77" d="M1091.89 367.427L986.707 551.367L881.52 367.427L1091.89 367.427Z" fill="white" fill-opacity="0.25"/>
<path opacity="0.74" d="M1512.64 -0.170853L1407.46 183.77L1302.27 -0.170833L1512.64 -0.170853Z" fill="white" fill-opacity="0.25"/>
<path opacity="0.08" d="M881.52 735.025L776.333 918.966L671.145 735.025L881.52 735.025Z" fill="white" fill-opacity="0.25"/>
<path opacity="0.61" d="M671.145 367.427L565.958 551.367L460.771 367.427L671.145 367.427Z" fill="white" fill-opacity="0.25"/>
<path opacity="0.15" d="M1617.83 183.768L1512.64 367.426L1407.46 183.768L1617.83 183.768Z" fill="white" fill-opacity="0.25"/>
<path opacity="0.34" d="M1407.46 551.368L1302.27 735.026L1197.08 551.368L1407.46 551.368Z" fill="white" fill-opacity="0.25"/>
<path opacity="0.05" d="M671.145 -0.170792L565.958 183.77L460.77 -0.170772L671.145 -0.170792Z" fill="white" fill-opacity="0.25"/>
<path opacity="0.62" d="M776.332 551.367L881.519 367.427L986.707 551.367L776.332 551.367Z" fill="white" fill-opacity="0.25"/>
<path opacity="0.64" d="M1091.9 735.026L1197.08 551.368L1302.27 735.026L1091.9 735.026Z" fill="white" fill-opacity="0.25"/>
<path opacity="0.87" d="M460.77 367.426L565.958 183.768L671.145 367.426L460.77 367.426Z" fill="white" fill-opacity="0.25"/>
<path opacity="0.23" d="M1512.64 367.427L1407.46 551.367L1302.27 367.427L1512.64 367.427Z" fill="white" fill-opacity="0.25"/>
<path opacity="0.55" d="M671.144 735.025L565.957 918.966L460.77 735.025L671.144 735.025Z" fill="white" fill-opacity="0.25"/>
<path opacity="0.42" d="M986.708 918.966L1091.9 735.025L1197.08 918.966L986.708 918.966Z" fill="white" fill-opacity="0.25"/>
<path opacity="0.38" d="M1197.08 183.77L1302.27 -0.170843L1407.46 183.77L1197.08 183.77Z" fill="white" fill-opacity="0.25"/>
<path opacity="0.94" d="M776.333 918.966L881.52 735.025L986.707 918.966L776.333 918.966Z" fill="white" fill-opacity="0.25"/>
<path opacity="0.7" d="M1302.27 367.426L1407.46 183.768L1512.64 367.426L1302.27 367.426Z" fill="white" fill-opacity="0.25"/>
<path opacity="0.57" d="M1302.27 -0.170822L1197.08 183.77L1091.9 -0.170803L1302.27 -0.170822Z" fill="white" fill-opacity="0.25"/>
<path opacity="0.39" d="M881.52 367.426L986.707 183.768L1091.89 367.426L881.52 367.426Z" fill="white" fill-opacity="0.25"/>
<path opacity="0.64" d="M776.333 183.768L671.145 367.426L565.958 183.768L776.333 183.768Z" fill="white" fill-opacity="0.25"/>
<path opacity="0.69" d="M1407.46 551.367L1512.64 367.427L1617.83 551.367L1407.46 551.367Z" fill="white" fill-opacity="0.25"/>
<path opacity="0.51" d="M1407.46 183.768L1302.27 367.426L1197.08 183.768L1407.46 183.768Z" fill="white" fill-opacity="0.25"/>
<path opacity="0.35" d="M1302.27 735.025L1197.08 918.966L1091.9 735.025L1302.27 735.025Z" fill="white" fill-opacity="0.25"/>
<path opacity="0.37" d="M1407.46 183.77L1512.64 -0.170843L1617.83 183.77L1407.46 183.77Z" fill="white" fill-opacity="0.25"/>
<path opacity="0.12" d="M671.146 735.026L776.333 551.368L881.52 735.026L671.146 735.026Z" fill="white" fill-opacity="0.25"/>
<path opacity="0.42" d="M1091.89 367.426L1197.08 183.768L1302.27 367.426L1091.89 367.426Z" fill="white" fill-opacity="0.25"/>
<path opacity="0.77" d="M881.52 735.026L986.707 551.368L1091.89 735.026L881.52 735.026Z" fill="white" fill-opacity="0.25"/>
<path opacity="0.74" d="M776.333 551.368L671.145 735.026L565.958 551.368L776.333 551.368Z" fill="white" fill-opacity="0.25"/>
<path opacity="0.71" d="M1197.08 183.767L1091.9 367.425L986.708 183.767L1197.08 183.767Z" fill="white" fill-opacity="0.25"/>
<path opacity="0.02" d="M986.707 551.368L1091.89 367.427L1197.08 551.367L986.707 551.368Z" fill="white" fill-opacity="0.25"/>
<path opacity="0.88" d="M1617.83 367.427L1512.64 551.367L1407.46 367.427L1617.83 367.427Z" fill="white" fill-opacity="0.25"/>
<path opacity="0.88" d="M881.52 551.368L776.333 735.026L671.146 551.368L881.52 551.368Z" fill="white" fill-opacity="0.25"/>
<path opacity="0.76" d="M671.145 551.368L565.957 735.026L460.77 551.368L671.145 551.368Z" fill="white" fill-opacity="0.25"/>
<path opacity="0.45" d="M565.958 735.025L460.771 918.966L355.583 735.025L565.958 735.025Z" fill="white" fill-opacity="0.25"/>
<path opacity="0.51" d="M1407.46 367.426L1512.64 183.768L1617.83 367.426L1407.46 367.426Z" fill="white" fill-opacity="0.25"/>
<path opacity="0.18" d="M1617.83 735.025L1512.64 918.966L1407.46 735.025L1617.83 735.025Z" fill="white" fill-opacity="0.25"/>
<path opacity="0.64" d="M355.584 735.026L460.771 551.368L565.958 735.026L355.584 735.026Z" fill="white" fill-opacity="0.25"/>
<path opacity="0.84" d="M1617.83 -0.170853L1512.64 183.77L1407.46 -0.170833L1617.83 -0.170853Z" fill="white" fill-opacity="0.25"/>
<path opacity="0.17" d="M776.333 367.427L671.145 551.367L565.958 367.427L776.333 367.427Z" fill="white" fill-opacity="0.25"/>
<path opacity="0.15" d="M881.52 918.966L986.707 735.025L1091.89 918.966L881.52 918.966Z" fill="white" fill-opacity="0.25"/>
<path opacity="0.83" d="M1091.89 183.768L986.707 367.426L881.52 183.768L1091.89 183.768Z" fill="white" fill-opacity="0.25"/>
<path opacity="0.11" d="M1197.08 735.026L1302.27 551.368L1407.46 735.026L1197.08 735.026Z" fill="white" fill-opacity="0.25"/>
<path opacity="0.35" d="M1302.27 918.966L1407.46 735.025L1512.64 918.966L1302.27 918.966Z" fill="white" fill-opacity="0.25"/>
<path opacity="0.69" d="M355.584 367.426L460.771 183.768L565.958 367.426L355.584 367.426Z" fill="white" fill-opacity="0.25"/>
<path opacity="0.9" d="M671.146 551.367L776.333 367.427L881.52 551.367L671.146 551.367Z" fill="white" fill-opacity="0.25"/>
<path opacity="0.41" d="M565.958 735.026L671.145 551.368L776.333 735.026L565.958 735.026Z" fill="white" fill-opacity="0.25"/>
<path opacity="0.55" d="M565.958 -0.170761L460.771 183.77L355.584 -0.170742L565.958 -0.170761Z" fill="white" fill-opacity="0.25"/>
<path opacity="0.73" d="M881.52 183.77L986.707 -0.170813L1091.89 183.77L881.52 183.77Z" fill="white" fill-opacity="0.25"/>
<path opacity="0.61" d="M881.52 183.768L776.333 367.426L671.146 183.768L881.52 183.768Z" fill="white" fill-opacity="0.25"/>
<path opacity="0.82" d="M1091.89 551.367L1197.08 367.427L1302.27 551.367L1091.89 551.367Z" fill="white" fill-opacity="0.25"/>
<path opacity="0.19" d="M671.146 183.77L776.333 -0.170782L881.52 183.77L671.146 183.77Z" fill="white" fill-opacity="0.25"/>
<path opacity="0.77" d="M986.707 735.025L881.52 918.966L776.333 735.025L986.707 735.025Z" fill="white" fill-opacity="0.25"/>
<path opacity="0.79" d="M986.708 735.026L1091.9 551.368L1197.08 735.026L986.708 735.026Z" fill="white" fill-opacity="0.25"/>
<path opacity="0.72" d="M986.707 367.427L881.519 551.367L776.332 367.427L986.707 367.427Z" fill="white" fill-opacity="0.25"/>
<path opacity="0.79" d="M986.708 367.425L1091.9 183.767L1197.08 367.425L986.708 367.425Z" fill="white" fill-opacity="0.25"/>
<path opacity="0.87" d="M1091.9 918.966L1197.08 735.025L1302.27 918.966L1091.9 918.966Z" fill="white" fill-opacity="0.25"/>
<path opacity="0.06" d="M1302.27 551.367L1407.46 367.427L1512.64 551.367L1302.27 551.367Z" fill="white" fill-opacity="0.25"/>
<path opacity="0.22" d="M776.333 735.026L881.52 551.368L986.707 735.026L776.333 735.026Z" fill="white" fill-opacity="0.25"/>
<path opacity="0.57" d="M1407.46 735.025L1302.27 918.966L1197.08 735.025L1407.46 735.025Z" fill="white" fill-opacity="0.25"/>
<path opacity="0.73" d="M460.771 551.367L565.958 367.427L671.145 551.367L460.771 551.367Z" fill="white" fill-opacity="0.25"/>
<path opacity="0.32" d="M1302.27 183.768L1197.08 367.426L1091.89 183.768L1302.27 183.768Z" fill="white" fill-opacity="0.25"/>
<path opacity="0.03" d="M1091.89 551.368L986.707 735.026L881.52 551.368L1091.89 551.368Z" fill="white" fill-opacity="0.25"/>
<path opacity="0.56" d="M776.333 -0.170792L671.145 183.77L565.958 -0.170772L776.333 -0.170792Z" fill="white" fill-opacity="0.25"/>
<path opacity="0.6" d="M460.77 183.77L565.958 -0.170782L671.145 183.77L460.77 183.77Z" fill="white" fill-opacity="0.25"/>
<path opacity="0.9" d="M1512.64 183.768L1407.46 367.426L1302.27 183.768L1512.64 183.768Z" fill="white" fill-opacity="0.25"/>
<path opacity="0.88" d="M671.145 918.966L776.333 735.025L881.52 918.966L671.145 918.966Z" fill="white" fill-opacity="0.25"/>
<path opacity="0.01" d="M986.707 -0.170792L881.52 183.77L776.333 -0.170772L986.707 -0.170792Z" fill="white" fill-opacity="0.25"/>
<path opacity="0.59" d="M1407.46 -0.170853L1302.27 183.77L1197.08 -0.170833L1407.46 -0.170853Z" fill="white" fill-opacity="0.25"/>
<path opacity="0.37" d="M1197.08 367.427L1091.89 551.368L986.707 367.427L1197.08 367.427Z" fill="white" fill-opacity="0.25"/>
<path opacity="0.21" d="M1197.08 -0.170822L1091.9 183.77L986.708 -0.170803L1197.08 -0.170822Z" fill="white" fill-opacity="0.25"/>
<path opacity="0.71" d="M1407.46 367.427L1302.27 551.367L1197.08 367.427L1407.46 367.427Z" fill="white" fill-opacity="0.25"/>
<path opacity="0.33" d="M565.958 367.426L671.145 183.768L776.333 367.426L565.958 367.426Z" fill="white" fill-opacity="0.25"/>
<path opacity="0.2" d="M1091.9 183.77L1197.08 -0.170813L1302.27 183.77L1091.9 183.77Z" fill="white" fill-opacity="0.25"/>
<path opacity="0.97" d="M1302.27 183.77L1407.46 -0.170843L1512.64 183.77L1302.27 183.77Z" fill="white" fill-opacity="0.25"/>
<path opacity="0.25" d="M776.333 367.426L881.52 183.768L986.707 367.426L776.333 367.426Z" fill="white" fill-opacity="0.25"/>
<path opacity="0.24" d="M671.145 183.768L565.958 367.426L460.77 183.768L671.145 183.768Z" fill="white" fill-opacity="0.25"/>
<path opacity="0.95" d="M1197.08 367.426L1302.27 183.768L1407.46 367.426L1197.08 367.426Z" fill="white" fill-opacity="0.25"/>
<path opacity="0.19" d="M776.332 735.025L671.145 918.966L565.958 735.025L776.332 735.025Z" fill="white" fill-opacity="0.25"/>
<path opacity="0.45" d="M881.52 551.367L986.707 367.427L1091.89 551.367L881.52 551.367Z" fill="white" fill-opacity="0.25"/>
<path opacity="0.62" d="M1512.64 551.368L1407.46 735.026L1302.27 551.368L1512.64 551.368Z" fill="white" fill-opacity="0.25"/>
<path opacity="0.11" d="M1302.27 551.368L1197.08 735.026L1091.9 551.368L1302.27 551.368Z" fill="white" fill-opacity="0.25"/>
<path opacity="0.52" d="M1407.46 735.026L1512.64 551.368L1617.83 735.026L1407.46 735.026Z" fill="white" fill-opacity="0.25"/>
<path opacity="0.06" d="M565.958 367.427L460.771 551.367L355.584 367.427L565.958 367.427Z" fill="white" fill-opacity="0.25"/>
<path opacity="0.65" d="M1197.08 735.025L1091.9 918.966L986.708 735.025L1197.08 735.025Z" fill="white" fill-opacity="0.25"/>
</g>
</svg>