<svg xmlns="http://www.w3.org/2000/svg" width="662" height="304" viewBox="0 0 662 304" fill="none">
<g opacity="0.55">
<mask id="mask0" mask-type="alpha" maskUnits="userSpaceOnUse" x="6" y="0" width="656" height="303">
<rect x="6" width="656" height="303" fill="#C4C4C4"/>
</mask>
<g mask="url(#mask0)">
<path opacity="0.96" d="M-40.2324 458.149L676.977 458.148L676.977 -260.494L-40.2324 -260.494L-40.2324 458.149Z" fill="#D5D5D5"/>
<path opacity="0.96" d="M19.535 250.701L79.3024 146.897L139.07 250.701L19.535 250.701Z" fill="white"/>
<path opacity="0.51" d="M437.907 146.896L497.674 43.252L557.442 146.896L437.907 146.896Z" fill="white"/>
<path opacity="0.08" d="M557.442 146.896L617.209 43.2522L676.977 146.896L557.442 146.896Z" fill="white"/>
<path opacity="0.91" d="M617.209 43.252L676.977 -60.552L736.744 43.252L617.209 43.252Z" fill="white"/>
<path opacity="0.28" d="M139.07 250.7L79.3024 354.344L19.535 250.7L139.07 250.7Z" fill="white"/>
<path opacity="0.32" d="M19.535 43.2517L79.3024 -60.5523L139.07 43.2517L19.535 43.2517Z" fill="white"/>
<path opacity="0.98" d="M736.744 43.252L676.977 146.896L617.209 43.252L736.744 43.252Z" fill="white"/>
<path opacity="0.22" d="M497.675 250.7L557.442 146.896L617.209 250.7L497.675 250.7Z" fill="white"/>
<path opacity="0.28" d="M-99.9997 43.2522L-40.2323 -60.5518L19.5352 43.2522L-99.9997 43.2522Z" fill="white"/>
<path opacity="0.98" d="M437.907 -60.5523L378.14 43.2517L318.372 -60.5523L437.907 -60.5523Z" fill="white"/>
<path opacity="0.34" d="M318.372 354.344L378.14 250.7L437.907 354.344L318.372 354.344Z" fill="white"/>
<path opacity="0.32" d="M258.604 43.2522L198.837 146.896L139.07 43.2522L258.604 43.2522Z" fill="white"/>
<path opacity="0.56" d="M198.837 -60.5523L139.07 43.2517L79.3025 -60.5523L198.837 -60.5523Z" fill="white"/>
<path opacity="0.91" d="M736.744 250.7L676.977 354.344L617.209 250.7L736.744 250.7Z" fill="white"/>
<path opacity="0.19" d="M-40.2326 146.896L19.5348 43.252L79.3022 146.896L-40.2326 146.896Z" fill="white"/>
<path opacity="0.41" d="M557.442 146.897L497.674 250.701L437.907 146.897L557.442 146.897Z" fill="white"/>
<path opacity="0.03" d="M617.209 43.2522L557.442 146.896L497.675 43.2522L617.209 43.2522Z" fill="white"/>
<path opacity="0.43" d="M437.907 354.344L497.674 250.7L557.442 354.344L437.907 354.344Z" fill="white"/>
<path opacity="0.09" d="M318.372 146.897L258.605 250.701L198.837 146.897L318.372 146.897Z" fill="white"/>
<path opacity="0.26" d="M378.139 43.2517L437.907 -60.5523L497.674 43.2517L378.139 43.2517Z" fill="white"/>
<path opacity="0.87" d="M378.14 43.2522L318.372 146.896L258.605 43.2522L378.14 43.2522Z" fill="white"/>
<path opacity="0.17" d="M19.5351 43.2525L-40.2323 146.897L-99.9997 43.2525L19.5351 43.2525Z" fill="white"/>
<path opacity="0.01" d="M378.139 250.701L437.907 146.897L497.674 250.701L378.139 250.701Z" fill="white"/>
<path opacity="0.84" d="M-99.9997 250.701L-40.2323 146.897L19.5352 250.701L-99.9997 250.701Z" fill="white"/>
<path opacity="0.6" d="M378.14 250.7L318.372 354.344L258.605 250.7L378.14 250.7Z" fill="white"/>
<path opacity="0.77" d="M318.372 -60.552L258.605 43.252L198.837 -60.552L318.372 -60.552Z" fill="white"/>
<path opacity="0.08" d="M198.837 146.897L139.07 250.701L79.3025 146.897L198.837 146.897Z" fill="white"/>
<path opacity="0.76" d="M-40.2326 354.344L19.5348 250.7L79.3022 354.344L-40.2326 354.344Z" fill="white"/>
<path opacity="0.61" d="M79.3022 -60.5523L19.5348 43.2517L-40.2326 -60.5523L79.3022 -60.5523Z" fill="white"/>
<path opacity="0.34" d="M497.674 43.252L437.907 146.896L378.139 43.252L497.674 43.252Z" fill="white"/>
<path opacity="0.62" d="M139.07 43.252L198.837 -60.552L258.604 43.252L139.07 43.252Z" fill="white"/>
<path opacity="0.51" d="M676.977 146.897L617.209 250.701L557.442 146.897L676.977 146.897Z" fill="white"/>
<path opacity="0.53" d="M198.837 354.344L258.605 250.7L318.372 354.344L198.837 354.344Z" fill="white"/>
<path opacity="0.64" d="M318.372 146.896L378.14 43.252L437.907 146.896L318.372 146.896Z" fill="white"/>
<path opacity="0.16" d="M79.3025 354.344L139.07 250.7L198.837 354.344L79.3025 354.344Z" fill="white"/>
<path opacity="0.23" d="M557.442 -60.5523L497.674 43.2517L437.907 -60.5523L557.442 -60.5523Z" fill="white"/>
<path opacity="0.55" d="M79.3022 146.896L19.5348 250.7L-40.2326 146.896L79.3022 146.896Z" fill="white"/>
<path opacity="0.42" d="M258.605 250.701L318.372 146.897L378.14 250.701L258.605 250.701Z" fill="white"/>
<path opacity="0.94" d="M139.07 250.7L198.837 146.896L258.604 250.7L139.07 250.7Z" fill="white"/>
<path opacity="0.5" d="M617.209 250.7L557.442 354.344L497.675 250.7L617.209 250.7Z" fill="white"/>
<path opacity="0.92" d="M497.674 250.7L437.907 354.344L378.139 250.7L497.674 250.7Z" fill="white"/>
<path opacity="0.62" d="M557.442 354.344L617.209 250.7L676.977 354.344L557.442 354.344Z" fill="white"/>
<path opacity="0.05" d="M258.604 250.7L198.837 354.344L139.07 250.7L258.604 250.7Z" fill="white"/>
<path opacity="0.69" d="M497.675 43.252L557.442 -60.552L617.209 43.252L497.675 43.252Z" fill="white"/>
<path opacity="0.35" d="M437.907 146.896L378.14 250.7L318.372 146.896L437.907 146.896Z" fill="white"/>
<path opacity="0.12" d="M79.3025 146.896L139.07 43.252L198.837 146.896L79.3025 146.896Z" fill="white"/>
<path opacity="0.52" d="M676.977 -60.552L617.209 43.252L557.442 -60.552L676.977 -60.552Z" fill="white"/>
<path opacity="0.77" d="M198.837 146.896L258.605 43.2522L318.372 146.896L198.837 146.896Z" fill="white"/>
<path opacity="0.74" d="M139.07 43.252L79.3024 146.896L19.535 43.252L139.07 43.252Z" fill="white"/>
<path opacity="0.73" d="M617.209 250.7L676.977 146.896L736.744 250.7L617.209 250.7Z" fill="white"/>
<path opacity="0.71" d="M19.5351 250.7L-40.2323 354.344L-99.9997 250.7L19.5351 250.7Z" fill="white"/>
<path opacity="0.02" d="M258.605 43.252L318.372 -60.552L378.14 43.252L258.605 43.252Z" fill="white"/>
<path opacity="0.12" d="M617.209 354.344L676.977 250.7L736.744 354.344L617.209 354.344Z" fill="white"/>
<path opacity="0.88" d="M617.209 -60.552L557.442 43.252L497.675 -60.552L617.209 -60.552Z" fill="white"/>
<path opacity="0.88" d="M198.837 43.252L139.07 146.896L79.3025 43.252L198.837 43.252Z" fill="white"/>
<path opacity="0.76" d="M79.3022 43.252L19.5348 146.896L-40.2326 43.252L79.3022 43.252Z" fill="white"/>
<path opacity="0.45" d="M19.5351 146.897L-40.2323 250.701L-99.9997 146.897L19.5351 146.897Z" fill="white"/>
<path opacity="0.18" d="M617.209 146.896L557.442 250.7L497.675 146.896L617.209 146.896Z" fill="white"/>
<path opacity="0.64" d="M-99.9997 146.897L-40.2323 43.2525L19.5352 146.897L-99.9997 146.897Z" fill="white"/>
<path opacity="0.17" d="M139.07 -60.5523L79.3024 43.2517L19.535 -60.5523L139.07 -60.5523Z" fill="white"/>
<path opacity="0.26" d="M736.744 146.896L676.977 250.7L617.209 146.896L736.744 146.896Z" fill="white"/>
<path opacity="0.15" d="M198.837 250.701L258.605 146.897L318.372 250.701L198.837 250.701Z" fill="white"/>
<path opacity="0.11" d="M378.139 146.896L437.907 43.252L497.674 146.896L378.139 146.896Z" fill="white"/>
<path opacity="0.35" d="M437.907 250.701L497.674 146.897L557.442 250.701L437.907 250.701Z" fill="white"/>
<path opacity="0.77" d="M-99.9997 354.344L-40.2323 250.7L19.5352 354.344L-99.9997 354.344Z" fill="white"/>
<path opacity="0.66" d="M676.977 43.2522L617.209 146.896L557.442 43.2522L676.977 43.2522Z" fill="white"/>
<path opacity="0.9" d="M79.3025 43.2517L139.07 -60.5523L198.837 43.2517L79.3025 43.2517Z" fill="white"/>
<path opacity="0.31" d="M378.139 354.344L437.907 250.7L497.674 354.344L378.139 354.344Z" fill="white"/>
<path opacity="0.41" d="M19.535 146.896L79.3024 43.252L139.07 146.896L19.535 146.896Z" fill="white"/>
<path opacity="0.82" d="M318.372 43.2517L378.14 -60.5523L437.907 43.2517L318.372 43.2517Z" fill="white"/>
<path opacity="0.77" d="M258.604 146.896L198.837 250.7L139.07 146.896L258.604 146.896Z" fill="white"/>
<path opacity="0.79" d="M258.605 146.896L318.372 43.2522L378.14 146.896L258.605 146.896Z" fill="white"/>
<path opacity="0.48" d="M557.442 250.7L497.674 354.344L437.907 250.7L557.442 250.7Z" fill="white"/>
<path opacity="0.23" d="M617.209 146.896L676.977 43.252L736.744 146.896L617.209 146.896Z" fill="white"/>
<path opacity="0.72" d="M258.604 -60.552L198.837 43.252L139.07 -60.552L258.604 -60.552Z" fill="white"/>
<path opacity="0.08" d="M736.744 -60.552L676.977 43.252L617.209 -60.552L736.744 -60.552Z" fill="white"/>
<path opacity="0.87" d="M318.372 250.7L378.14 146.896L437.907 250.7L318.372 250.7Z" fill="white"/>
<path opacity="0.06" d="M437.907 43.2517L497.674 -60.5523L557.442 43.2517L437.907 43.2517Z" fill="white"/>
<path opacity="0.1" d="M557.442 250.701L617.209 146.897L676.977 250.701L557.442 250.701Z" fill="white"/>
<path opacity="0.59" d="M79.3022 250.7L19.5348 354.344L-40.2326 250.7L79.3022 250.7Z" fill="white"/>
<path opacity="0.8" d="M19.535 354.344L79.3024 250.7L139.07 354.344L19.535 354.344Z" fill="white"/>
<path opacity="0.22" d="M139.07 146.896L198.837 43.2522L258.604 146.896L139.07 146.896Z" fill="white"/>
<path opacity="0.57" d="M497.674 146.897L437.907 250.701L378.139 146.897L497.674 146.897Z" fill="white"/>
<path opacity="0.73" d="M-40.2326 43.2517L19.5348 -60.5523L79.3022 43.2517L-40.2326 43.2517Z" fill="white"/>
<path opacity="0.03" d="M318.372 43.2522L258.605 146.896L198.837 43.2522L318.372 43.2522Z" fill="white"/>
<path opacity="0.53" d="M676.977 250.7L617.209 354.344L557.442 250.7L676.977 250.7Z" fill="white"/>
<path opacity="0.88" d="M79.3025 250.701L139.07 146.897L198.837 250.701L79.3025 250.701Z" fill="white"/>
<path opacity="0.99" d="M557.442 43.252L617.209 -60.552L676.977 43.252L557.442 43.252Z" fill="white"/>
<path opacity="0.37" d="M378.14 -60.552L318.372 43.252L258.605 -60.552L378.14 -60.552Z" fill="white"/>
<path opacity="0.71" d="M497.674 -60.5523L437.907 43.2517L378.139 -60.5523L497.674 -60.5523Z" fill="white"/>
<path opacity="0.69" d="M198.837 250.7L139.07 354.344L79.3025 250.7L198.837 250.7Z" fill="white"/>
<path opacity="0.63" d="M437.907 250.7L378.14 354.344L318.372 250.7L437.907 250.7Z" fill="white"/>
<path opacity="0.3" d="M497.675 354.344L557.442 250.7L617.209 354.344L497.675 354.344Z" fill="white"/>
<path opacity="0.19" d="M139.07 146.897L79.3024 250.701L19.535 146.897L139.07 146.897Z" fill="white"/>
<path opacity="0.85" d="M139.07 354.344L198.837 250.7L258.604 354.344L139.07 354.344Z" fill="white"/>
<path opacity="0.45" d="M198.837 43.252L258.605 -60.552L318.372 43.252L198.837 43.252Z" fill="white"/>
<path opacity="0.62" d="M557.442 43.252L497.674 146.896L437.907 43.252L557.442 43.252Z" fill="white"/>
<path opacity="0.1" d="M318.372 250.7L258.605 354.344L198.837 250.7L318.372 250.7Z" fill="white"/>
<path opacity="0.11" d="M437.907 43.252L378.14 146.896L318.372 43.252L437.907 43.252Z" fill="white"/>
<path opacity="0.52" d="M497.675 146.896L557.442 43.2522L617.209 146.896L497.675 146.896Z" fill="white"/>
<path opacity="0.06" d="M19.5351 -60.5518L-40.2323 43.2522L-99.9997 -60.5518L19.5351 -60.5518Z" fill="white"/>
<path opacity="0.62" d="M258.605 354.344L318.372 250.7L378.14 354.344L258.605 354.344Z" fill="white"/>
<path opacity="0.65" d="M378.14 146.897L318.372 250.701L258.605 146.897L378.14 146.897Z" fill="white"/>
</g>
</g>
<rect y="304" width="304" height="481" transform="rotate(-90 0 304)" fill="url(#paint0_linear)"/>
<defs>
<linearGradient id="paint0_linear" x1="152" y1="304" x2="152" y2="785" gradientUnits="userSpaceOnUse">
<stop stop-color="#F8F8F8"/>
<stop offset="1" stop-color="#F8F8F8" stop-opacity="0"/>
</linearGradient>
</defs>
</svg>